<?xml version="1.0" standalone="no"?>
<!DOCTYPE svg PUBLIC "-//W3C//DTD SVG 20010904//EN"
 "http://www.w3.org/TR/2001/REC-SVG-20010904/DTD/svg10.dtd">
<svg version="1.0" xmlns="http://www.w3.org/2000/svg"
 width="700.000000pt" height="700.000000pt" viewBox="0 0 700.000000 700.000000"
 preserveAspectRatio="xMidYMid meet">
<metadata>
Created by potrace 1.11, written by Peter Selinger 2001-2013
</metadata>
<g transform="translate(0.000000,700.000000) scale(0.100000,-0.100000)"
fill="#000000" stroke="none">
<path d="M4421 6335 c-442 -123 -695 -512 -510 -782 39 -57 137 -130 218 -163
328 -137 748 41 827 350 52 202 -79 486 -265 578 -68 33 -184 40 -270 17z"/>
<path d="M2815 6076 c-27 -8 -80 -28 -117 -45 -258 -115 -408 -309 -396 -511
6 -92 31 -147 98 -211 99 -93 223 -139 378 -139 112 0 162 11 267 59 150 70
249 190 276 335 31 169 -96 423 -249 498 -58 28 -181 35 -257 14z"/>
<path d="M3656 4565 c-585 -95 -1165 -526 -1435 -1064 -123 -245 -176 -476
-188 -821 -29 -861 396 -1461 1127 -1592 154 -27 465 -29 623 -4 345 55 594
166 778 346 205 202 288 460 148 460 -49 0 -116 -48 -238 -171 -173 -172 -277
-239 -425 -274 -212 -50 -423 39 -591 250 -58 73 -181 304 -168 315 5 4 31 15
58 25 28 10 94 40 148 66 602 298 1065 829 1204 1384 24 97 27 129 28 270 0
137 -3 171 -23 238 -83 289 -293 488 -593 563 -91 22 -340 27 -453 9z m142
-339 c103 -54 150 -199 139 -426 -25 -493 -300 -1054 -663 -1351 l-73 -60 -8
28 c-4 15 -7 118 -7 228 0 218 18 373 75 657 97 483 264 844 424 919 48 22 77
24 113 5z"/>
</g>
</svg>
